<svg xmlns="http://www.w3.org/2000/svg" viewBox="0 0 500 500"><title>Logo</title><circle cx="250" cy="250" r="170" style="fill:none;stroke:#00727f;stroke-linecap:round;stroke-miterlimit:10;stroke-width:4px"/><path d="M133.19813,268.40234a1.60489,1.60489,0,0,1-1.59037-1.407,120.78893,120.78893,0,0,1-.91849-14.87133c0-2.02819.05173-4.07937.15308-6.09607a1.60493,1.60493,0,0,1,3.20582.16091c-.09874,1.96393-.1489,3.96026-.1489,5.93516a117.655,117.655,0,0,0,.89341,14.4753,1.60683,1.60683,0,0,1-1.59455,1.803Zm1.64941-39.1642a1.587,1.587,0,0,1-.33385-.03553,1.60415,1.60415,0,0,1-1.23771-1.90228,118.7304,118.7304,0,0,1,6.14936-20.07086,1.6051,1.6051,0,0,1,2.97385,1.209A115.48876,115.48876,0,0,0,136.416,227.9649,1.60525,1.60525,0,0,1,134.84754,229.23814Zm222.9252-22.88326a1.60639,1.60639,0,0,1-1.47021-.95872,116.16657,116.16657,0,0,0-9.84-17.88436,1.60512,1.60512,0,0,1,2.6656-1.78891,119.40381,119.40381,0,0,1,10.11275,18.37966,1.60583,1.60583,0,0,1-1.46811,2.25233Zm-208.49222-13.5725a1.60493,1.60493,0,0,1-1.37094-2.43728,119.95062,119.95062,0,0,1,12.41368-16.91833,1.60487,1.60487,0,0,1,2.41168,2.11806,116.73526,116.73526,0,0,0-12.08035,16.46484A1.60373,1.60373,0,0,1,149.28052,192.78238Zm186.94227-19.16647a1.59909,1.59909,0,0,1-1.17606-.51254,117.05475,117.05475,0,0,0-15.15816-13.68482,1.60511,1.60511,0,1,1,1.93415-2.56215,120.26436,120.26436,0,0,1,15.57509,14.062,1.605,1.605,0,0,1-1.175,2.69747ZM174.891,163.10086a1.605,1.605,0,0,1-1.02611-2.8401,119.86183,119.86183,0,0,1,17.25793-11.92883,1.60512,1.60512,0,1,1,1.58619,2.791,116.66406,116.66406,0,0,0-16.7945,11.608A1.59644,1.59644,0,0,1,174.891,163.10086ZM305.14055,149.7222a1.60017,1.60017,0,0,1-.75182-.18809,115.6471,115.6471,0,0,0-18.81017-7.95081,1.60484,1.60484,0,1,1,.98328-3.05535,118.90515,118.90515,0,0,1,19.33366,8.17129,1.60543,1.60543,0,0,1-.755,3.023Zm-96.35591-6.27685a1.60543,1.60543,0,0,1-.56216-3.10916,118.82317,118.82317,0,0,1,20.22759-5.57675,1.6049,1.6049,0,1,1,.57575,3.15775,115.55764,115.55764,0,0,0-19.679,5.42628A1.60914,1.60914,0,0,1,208.78464,143.44535ZM267.934,137.3869a1.61491,1.61491,0,0,1-.24451-.01829,117.9187,117.9187,0,0,0-20.37911-1.30929,1.60488,1.60488,0,1,1-.0721-3.209,120.99928,120.99928,0,0,1,20.93606,1.34481,1.60506,1.60506,0,0,1-.24034,3.19172Z" style="fill:#00727f;stroke:#00727f;stroke-miterlimit:10"/><path d="M145.47132,306.41662a1.60491,1.60491,0,0,1-1.94711-.84717,120.79146,120.79146,0,0,1-5.46551-13.861c-.62625-1.92909-1.21041-3.896-1.73672-5.84546a1.60493,1.60493,0,0,1,3.09886-.83682c.51249,1.89845,1.08121,3.81271,1.691,5.69111a117.65524,117.65524,0,0,0,5.31937,13.4921,1.60687,1.60687,0,0,1-.9599,2.20727Z" style="fill:#00727f;stroke:#00727f;stroke-miterlimit:10"/><path d="M364.04917,218.8077a1.60489,1.60489,0,0,1,1.76921,1.17421,120.78766,120.78766,0,0,1,2.96069,14.60254c.27971,2.00882.51137,4.04753.68911,6.05894a1.60492,1.60492,0,1,1-3.19737.28275c-.17306-1.95879-.3987-3.94295-.67107-5.899a117.657,117.657,0,0,0-2.88122-14.21377,1.60684,1.60684,0,0,1,1.33065-2.00569Z" style="fill:#00727f;stroke:#00727f;stroke-miterlimit:10"/><path d="M250,378.22746a128.1887,128.1887,0,1,1,69.958-20.74734" style="fill:none;stroke:#00727f;stroke-linecap:round;stroke-miterlimit:10;stroke-width:4px"/><path d="M251.12635,392.30556a1.5,1.5,0,0,1-.0471-2.99965,128.0579,128.0579,0,0,0,43.29309-8.37471,1.49985,1.49985,0,1,1,1.06875,2.80285,131.04488,131.04488,0,0,1-44.30351,8.57138ZM217.7918,388.66a1.48481,1.48481,0,0,1-.3731-.04291,130.54428,130.54428,0,0,1-41.35136-18.0708,1.50017,1.50017,0,1,1,1.65674-2.50144,127.54777,127.54777,0,0,0,40.403,17.65731,1.50024,1.50024,0,0,1-.33526,2.95784Z" style="fill:#00727f;stroke:#00727f;stroke-miterlimit:10"/><path d="M325.3955,369.04313a1.5,1.5,0,0,1-1.5379-2.57585,128.05821,128.05821,0,0,0,33.33608-28.86405,1.49985,1.49985,0,0,1,2.325,1.89542,131.045,131.045,0,0,1-34.11351,29.53876Z" style="fill:#00727f;stroke:#00727f;stroke-miterlimit:10"/><path d="M149.51526,349.0136a1.485,1.485,0,0,1-.29837-.22807,130.54449,130.54449,0,0,1-26.24429-36.71139,1.50016,1.50016,0,1,1,2.70468-1.29871,127.548,127.548,0,0,0,25.64191,35.87025,1.50024,1.50024,0,0,1-1.80393,2.36792Z" style="fill:#00727f;stroke:#00727f;stroke-miterlimit:10"/><path d="M378.03364,196.52838a1.501,1.501,0,0,1-1.395-.94825,128.241,128.241,0,0,0-19.10694-32.8999,1.5,1.5,0,1,1,2.34278-1.874,131.24275,131.24275,0,0,1,19.55322,33.66943,1.50126,1.50126,0,0,1-1.394,2.05274Zm-39.7793-53.73291a1.49444,1.49444,0,0,1-.936-.32862A128.26026,128.26026,0,0,0,304.416,123.35894a1.4999,1.4999,0,1,1,1.10449-2.78906,131.26253,131.26253,0,0,1,33.67188,19.5542,1.5,1.5,0,0,1-.938,2.67139Z" style="fill:#00727f;stroke:#00727f;stroke-miterlimit:10"/><path d="M389.51,262.65743a1.501,1.501,0,0,1-.83244-1.46706,128.24069,128.24069,0,0,0-2.60289-37.9566,1.5,1.5,0,1,1,2.92973-.64594,131.24278,131.24278,0,0,1,2.66321,38.84413,1.50124,1.50124,0,0,1-2.15761,1.22547Z" style="fill:#00727f;stroke:#00727f;stroke-miterlimit:10"/><path d="M277.71512,113.84117a1.49437,1.49437,0,0,1-.98238.13811,128.26014,128.26014,0,0,0-38.00295-1.85792,1.4999,1.4999,0,1,1-.30017-2.98474,131.262,131.262,0,0,1,38.8915,1.90083,1.5,1.5,0,0,1,.394,2.80372Z" style="fill:#00727f;stroke:#00727f;stroke-miterlimit:10"/><path d="M340.01274,370.00141A150.00366,150.00366,0,1,1,250,100" style="fill:none;stroke:#00727f;stroke-linecap:round;stroke-miterlimit:10;stroke-width:3px"/><path d="M262.44768,90.47705a159.96183,159.96183,0,1,1-95.1963,22.55495" style="fill:none;stroke:#00727f;stroke-linecap:round;stroke-miterlimit:10;stroke-width:2px;stroke-dasharray:4.977560997009277,9.955121994018555"/><path d="M430,250A180,180,0,1,1,99.99983,150.4664" style="fill:none;stroke:#00727f;stroke-linecap:round;stroke-miterlimit:10;stroke-width:2px"/><path d="M235.26416,216.32861q-9.52368-9.37279-21.09375-9.375-10.98633,0-21.09375,8.34961a53.89905,53.89905,0,0,0-17.57812,27.2461,36.90661,36.90661,0,0,0-1.75782,9.96093,49.16952,49.16952,0,0,0,.293,6.15235q0,14.502,9.81445,22.26562,9.22853,7.17921,23.584,7.17774,19.62744-1.60987,37.64648-15.08789,4.97827-3.80714,10.54688-7.32422a15.72433,15.72433,0,0,1,4.1748.58594q2.12182.5874,2.124,3.36914-14.502,12.59985-24.46289,18.16406-18.457,9.96313-33.39844,9.96094h-1.9043q-16.25976,0-27.832-10.10743Q162.022,276.97534,162.022,261.00635a62.25517,62.25517,0,0,1,4.32129-22.99805,63.77935,63.77935,0,0,1,11.86524-19.40918,56.97258,56.97258,0,0,1,17.87109-13.40332,50.44139,50.44139,0,0,1,22.19238-4.98047q10.10742,0,13.1836,2.78321Q235.26269,206.36987,235.26416,216.32861Z"/><path d="M311.46533,216.32861q-9.52368-9.37279-21.09375-9.375-10.98633,0-21.09375,8.34961a53.89905,53.89905,0,0,0-17.57812,27.2461,36.90661,36.90661,0,0,0-1.75782,9.96093,49.17146,49.17146,0,0,0,.293,6.15235q0,14.502,9.81446,22.26562,9.22851,7.17921,23.584,7.17774,19.62744-1.60987,37.64649-15.08789,4.97826-3.80714,10.54687-7.32422a15.72433,15.72433,0,0,1,4.1748.58594q2.12184.5874,2.124,3.36914-14.502,12.59985-24.46289,18.16406-18.457,9.96313-33.39844,9.96094h-1.9043q-16.25976,0-27.832-10.10743-12.30468-10.69116-12.30469-26.66015a62.25517,62.25517,0,0,1,4.32129-22.99805,63.77955,63.77955,0,0,1,11.86524-19.40918,56.9727,56.9727,0,0,1,17.87109-13.40332,50.44139,50.44139,0,0,1,22.19238-4.98047q10.10744,0,13.1836,2.78321Q311.46386,206.36987,311.46533,216.32861Z"/></svg>
